<svg width="20" height="20" viewBox="0 0 20 20" fill="none" xmlns="http://www.w3.org/2000/svg">
<rect x="5" y="13.7695" width="11" height="3.23077" fill="white"/>
<path d="M5 4.38544C5 2.34503 16 3.16124 16 3.16124V13.7692H5.00002C5.00002 13.7692 5 6.06736 5 4.38544Z" fill="#B6CFFE"/>
<path d="M4.45264 13.216V5.27021C4.45264 4.66812 4.69182 4.09068 5.11757 3.66493C5.54331 3.23918 6.12075 3 6.72285 3H15.047C15.2477 3 15.4401 3.07973 15.5821 3.22164C15.724 3.36356 15.8037 3.55604 15.8037 3.75674V13.216H6.62826M4.45264 13.2122V15.0132" stroke="#2A4CC2" stroke-linecap="round" stroke-linejoin="round"/>
<path d="M15.047 17.0005H6.34448C5.84273 17.0005 5.36153 16.8012 5.00675 16.4464C4.65196 16.0916 4.45264 15.6104 4.45264 15.1086C4.45264 14.6069 4.65196 14.1257 5.00675 13.7709C5.36153 13.4161 5.84273 13.2168 6.34448 13.2168H15.8037C15.8037 13.2168 15.047 13.9969 15.047 15.1086C15.047 16.2204 15.6824 16.6482 15.7291 16.8039C15.7291 17.0256 15.2477 17.0005 15.047 17.0005Z" stroke="#2A4CC2" stroke-linecap="round" stroke-linejoin="round"/>
</svg>
