<svg width="20" height="20" viewBox="0 0 20 20" fill="none" xmlns="http://www.w3.org/2000/svg">
<g clip-path="url(#clip0_2359_104990)">
<rect x="2" y="2" width="16" height="16" rx="3" fill="url(#paint0_linear_2359_104990)"/>
<path d="M8.021 12.7363C8.3588 13.2 8.69573 13.573 9.02979 13.8359C9.42449 14.1465 9.78254 14.2831 10.1089 14.2832C10.3671 14.2831 10.6444 14.1932 10.9458 13.9961C11.2054 14.2564 11.5032 14.5031 11.8608 14.6924C11.3469 15.1055 10.7583 15.3836 10.1089 15.3838C9.45947 15.3837 8.86741 15.1089 8.34814 14.7002C7.96169 14.3959 7.59783 14.0047 7.25732 13.5586C7.53214 13.2424 7.76314 12.9621 8.021 12.7363ZM12.1948 13.0186C12.4294 13.2105 12.6963 13.3658 13.0103 13.4375C12.8085 13.7167 12.5975 13.9754 12.3784 14.208C12.0222 14.0625 11.7273 13.8385 11.4585 13.5762C11.6547 13.3824 11.8516 13.1518 12.0483 12.8877C12.0969 12.9326 12.1448 12.9776 12.1948 13.0186ZM7.229 11.4834C7.36568 11.7294 7.50632 11.9642 7.64795 12.1875C7.62938 12.203 7.61049 12.2185 7.59229 12.2344C7.33636 12.4575 7.09486 12.7359 6.86475 13.0029C6.70375 12.7608 6.54659 12.505 6.39307 12.2383C6.39903 12.2319 6.40566 12.226 6.41162 12.2197C6.65776 11.9597 6.92026 11.7009 7.229 11.4834ZM16.9438 1.41699L17.481 1.53516V1.53711C17.4806 1.53885 17.4797 1.54171 17.479 1.54492C17.4775 1.55175 17.4751 1.56215 17.4722 1.5752C17.4663 1.60139 17.4582 1.64047 17.4468 1.69043C17.424 1.79037 17.3895 1.93606 17.3452 2.12109C17.2566 2.49188 17.1257 3.02114 16.9565 3.65527C16.6185 4.92227 16.1259 6.61613 15.5083 8.31348C14.9267 9.91199 14.2223 11.538 13.4224 12.8184C13.4111 12.8186 13.3997 12.8203 13.3882 12.8203C13.1015 12.8203 12.86 12.7091 12.6128 12.5068C12.5491 12.4547 12.4873 12.3974 12.4253 12.3369C13.1895 11.1422 13.8853 9.55589 14.4741 7.9375C15.0769 6.2808 15.5599 4.61964 15.8931 3.37109C16.0594 2.74765 16.1881 2.22808 16.2749 1.86523C16.3182 1.68397 16.3515 1.54176 16.3735 1.44531C16.3845 1.39731 16.3925 1.36047 16.3979 1.33594C16.4006 1.32404 16.4025 1.31463 16.4038 1.30859C16.4044 1.30579 16.4055 1.30317 16.4058 1.30176V1.2998C16.4102 1.30071 16.4572 1.31074 16.9438 1.41699ZM3.68506 1.54688C3.6854 1.54822 3.68641 1.55017 3.68701 1.55273C3.68839 1.55865 3.69004 1.56814 3.69287 1.58008C3.69858 1.60415 3.70781 1.64025 3.71924 1.6875C3.74214 1.78215 3.77672 1.92171 3.82178 2.09961C3.91193 2.4556 4.04509 2.96546 4.21729 3.57715C4.56208 4.80195 5.06108 6.43068 5.6792 8.05566C6.05496 9.0435 6.47123 10.0195 6.91846 10.8984C6.58739 11.1222 6.30869 11.3804 6.06104 11.6338C5.53874 10.64 5.06447 9.53713 4.6499 8.44727C4.01619 6.78129 3.50777 5.11851 3.15771 3.875C2.98258 3.25286 2.84655 2.73402 2.75439 2.37012C2.70832 2.18818 2.67268 2.04448 2.64893 1.94629C2.63713 1.89754 2.62865 1.85969 2.62256 1.83398C2.6196 1.8215 2.6173 1.8114 2.61572 1.80469C2.61501 1.80163 2.61419 1.79865 2.61377 1.79688L2.61279 1.79395C2.61711 1.79275 2.66348 1.7816 3.14893 1.66895L3.68506 1.54492V1.54688Z" fill="white"/>
<path d="M0.954224 11.0942C0.954224 11.0942 2.87102 13.6915 4.02584 13.9426C6.3939 14.4575 6.62554 11.1678 8.93667 11.2361C11.1633 11.3018 11.2912 14.07 13.5152 13.9426C15.5685 13.825 15.6657 10.9816 17.7194 11.0941C18.7478 11.1504 19.6252 11.9017 19.6252 11.9017" stroke="white" stroke-width="1.10069"/>
</g>
<defs>
<linearGradient id="paint0_linear_2359_104990" x1="10" y1="2" x2="10" y2="18" gradientUnits="userSpaceOnUse">
<stop stop-color="#33B14F"/>
<stop offset="1" stop-color="#1B8142"/>
</linearGradient>
<clipPath id="clip0_2359_104990">
<rect x="2" y="2" width="16" height="16" rx="3" fill="white"/>
</clipPath>
</defs>
</svg>
