<svg width="20" height="20" viewBox="0 0 20 20" fill="none" xmlns="http://www.w3.org/2000/svg">
<path d="M5.96347 6.04293C6.29285 5.59793 6.9628 5.57433 7.1728 5.57849C7.22069 5.57769 7.25956 5.57837 7.28644 5.57926C7.2865 5.57926 7.28656 5.57926 7.28662 5.57926C7.50031 5.57389 8.35013 5.58298 8.69298 6.04617C8.35004 5.58285 7.49984 5.57379 7.28644 5.57926C7.26846 5.57972 7.25499 5.58028 7.24674 5.58067C7.25502 5.58028 7.26855 5.57972 7.28662 5.57926C7.28656 5.57926 7.2865 5.57926 7.28644 5.57926C7.49984 5.57379 8.35004 5.58285 8.69298 6.04617C8.96593 6.41494 9.13296 6.82909 8.96593 7.33685C8.60199 8.44315 8.05609 7.61342 8.1471 8.62753C8.24412 9.70855 8.3135 10.4054 8.42005 11.4855C8.51101 12.4074 8.47061 13.0533 9.05694 13.6981C9.4042 14.0799 9.87577 13.8824 10.3307 14.2512C10.7308 14.5756 10.785 14.8965 10.6946 15.4497C10.6344 15.8185 10.3307 16.0028 10.3307 16.0028L8.05608 15.9996H4.32576C4.32576 15.9996 4.02205 15.8152 3.96183 15.4465C3.87149 14.8933 3.92562 14.5723 4.32577 14.248C4.78068 13.8792 5.25225 14.0767 5.59951 13.6948C6.18584 13.0501 6.14544 12.4041 6.2364 11.4822C6.34295 10.4021 6.41233 9.7053 6.50935 8.62429C6.60036 7.61018 6.05446 8.4399 5.69052 7.33361C5.52349 6.82585 5.69052 6.41169 5.96347 6.04293Z" fill="#BEE4FF"/>
<path d="M7.23725 5.58117C7.23725 5.58117 6.35713 5.51109 5.96347 6.04293M7.23725 5.58117C7.23725 5.58117 8.29932 5.51433 8.69298 6.04617M7.23725 5.58117C7.23725 5.58117 7.25488 5.58007 7.28644 5.57926M5.96347 6.04293C5.69052 6.41169 5.52349 6.82585 5.69052 7.33361C6.05446 8.4399 6.60036 7.61018 6.50935 8.62429C6.41233 9.7053 6.34295 10.4021 6.2364 11.4822C6.14544 12.4041 6.18584 13.0501 5.59951 13.6948C5.25225 14.0767 4.78068 13.8792 4.32577 14.248C3.92562 14.5723 3.87149 14.8933 3.96183 15.4465C4.02205 15.8152 4.32576 15.9996 4.32576 15.9996H8.05608L10.3307 16.0028M5.96347 6.04293C6.30835 5.57699 7.09642 5.57299 7.28644 5.57926M8.69298 6.04617C8.96593 6.41494 9.13296 6.82909 8.96593 7.33685C8.60199 8.44315 8.05609 7.61342 8.1471 8.62753C8.24412 9.70855 8.3135 10.4054 8.42005 11.4855C8.51101 12.4074 8.47061 13.0533 9.05694 13.6981C9.4042 14.0799 9.87577 13.8824 10.3307 14.2512C10.7308 14.5756 10.785 14.8965 10.6946 15.4497C10.6344 15.8185 10.3307 16.0028 10.3307 16.0028M8.69298 6.04617C8.35004 5.58285 7.49984 5.57379 7.28644 5.57926M10.3307 16.0028L6.60037 16.0024M7.32824 5.58123C7.32824 5.58123 7.31332 5.58015 7.28644 5.57926" stroke="#005A9C"/>
<path d="M8.94318 5.91608C9.00528 5.25426 9.87015 4.80123 9.87015 4.80123C9.87015 4.80123 10.664 4.23056 11.2737 4.47627C11.6964 4.64664 12.0521 4.91172 12.1709 5.43322C12.4299 6.56945 11.537 6.15005 12.1367 6.96718C12.7759 7.83822 13.1938 8.39609 13.8407 9.2613C14.3929 9.9998 14.6909 10.5723 15.5231 10.8125C16.0159 10.9547 16.3166 10.537 16.8946 10.6112C17.4029 10.6765 17.6143 10.9217 17.822 11.4414C17.9604 11.7879 17.7962 12.1057 17.7962 12.1057L14.6136 14.0773L12.6712 15.2766C12.6712 15.2766 12.3171 15.2798 12.0759 14.997C11.7141 14.5728 11.5951 14.2704 11.7695 13.7821C11.9678 13.2271 12.4718 13.1463 12.5715 12.637C12.7399 11.777 12.3729 11.2473 11.976 10.4126C11.5109 9.43477 11.2114 8.80358 10.7377 7.82998C10.2933 6.91665 10.2547 7.91308 9.37469 7.16154C8.9708 6.8166 8.90012 6.37496 8.94318 5.91608Z" fill="#BEE4FF" stroke="#005A9C"/>
<path d="M2.92981 7.2373L3.92426 8.17755" stroke="#005A9C" stroke-width="0.8" stroke-linecap="round"/>
<path d="M1.7345 10.0361H3.57658" stroke="#005A9C" stroke-width="0.8" stroke-linecap="round"/>
<path d="M2.74768 12.7627L3.78145 12.1502" stroke="#005A9C" stroke-width="0.8" stroke-linecap="round"/>
</svg>
