<svg width="22" height="22" viewBox="0 0 22 22" fill="none" xmlns="http://www.w3.org/2000/svg">
<rect x="4.68799" y="8.2832" width="12.6239" height="7.96484" rx="3" fill="#CDB4F3"/>
<ellipse cx="8.04297" cy="12.5659" rx="1.03198" ry="1.40479" fill="#CDB4F3"/>
<ellipse cx="14.189" cy="12.5659" rx="1.03198" ry="1.40479" fill="#CDB4F3"/>
<path fill-rule="evenodd" clip-rule="evenodd" d="M7.43852 10.9717C8.03041 10.626 8.64833 10.8523 9.09183 11.4217C9.57928 12.0474 9.57928 13.1393 9.09183 13.7651C8.83284 14.0976 8.4546 14.3162 8.03722 14.3746C7.61984 14.3162 7.2416 14.0976 6.98262 13.7651C6.61394 13.2918 6.53639 12.5381 6.68752 11.9612C6.74154 11.755 6.83567 11.5615 6.96454 11.3917C7.0934 11.2219 7.25447 11.0792 7.43852 10.9717ZM8.8716 12.5465C8.8716 11.8715 8.48722 11.309 8.03722 11.309C7.95286 11.309 7.87102 11.3283 7.79363 11.3639C7.83497 11.4213 7.85963 11.4936 7.85963 11.5723C7.85963 11.7587 7.72111 11.9098 7.55025 11.9098C7.47552 11.9098 7.40697 11.8809 7.3535 11.8327C7.25312 12.0366 7.19347 12.2843 7.19347 12.5465C7.19347 13.2121 7.58722 13.784 8.03722 13.784C8.48722 13.784 8.8716 13.2215 8.8716 12.5465Z" fill="#6B31C7"/>
<path fill-rule="evenodd" clip-rule="evenodd" d="M15.2695 11.4217C14.826 10.8523 14.2081 10.626 13.6162 10.9717C13.4322 11.0792 13.2711 11.2219 13.1422 11.3917C13.0134 11.5615 12.9192 11.755 12.8652 11.9612C12.7141 12.5381 12.7916 13.2918 13.1603 13.7651C13.4193 14.0976 13.7975 14.3162 14.2149 14.3746C14.6323 14.3162 15.0105 14.0976 15.2695 13.7651C15.757 13.1393 15.757 12.0474 15.2695 11.4217ZM14.2149 11.309C14.6649 11.309 15.0587 11.8715 15.0587 12.5465C15.0587 13.2215 14.6649 13.784 14.2149 13.784C13.7649 13.784 13.3712 13.2121 13.3712 12.5465C13.3712 12.2504 13.4472 11.9729 13.5721 11.756C13.6273 11.8486 13.7229 11.9098 13.8316 11.9098C14.0025 11.9098 14.141 11.7587 14.141 11.5723C14.141 11.4791 14.1064 11.3948 14.0505 11.3337C14.1038 11.3175 14.1588 11.309 14.2149 11.309Z" fill="#6B31C7"/>
<path fill-rule="evenodd" clip-rule="evenodd" d="M13.3156 6.42519C13.3156 5.90019 12.2375 5.5 11 5.5C9.7625 5.5 8.58125 5.5521 8.58125 6.52832C8.57731 6.57198 8.57731 6.61591 8.58125 6.65957L8.04687 6.73457C6.92303 6.84059 5.86868 7.18463 4.83125 7.60644C4.50777 7.76475 4.23473 8.00994 4.04267 8.31459C3.85061 8.61924 3.74711 8.97132 3.74375 9.33144V9.38769C3.2 9.38769 2.75 10.4377 2.75 11.7127C2.75 12.9877 3.2 14.0283 3.74375 14.0283V14.2064C3.74293 14.564 3.84044 14.9149 4.02562 15.2208C4.21081 15.5267 4.47654 15.7758 4.79375 15.9408C7.84062 17.5158 14.1781 17.5064 17.2156 15.9408C17.5322 15.775 17.7973 15.5257 17.9824 15.22C18.1675 14.9143 18.2654 14.5638 18.2656 14.2064V14.0283C18.8094 14.0283 19.25 12.9971 19.25 11.7127C19.25 10.4283 18.8094 9.38769 18.2656 9.38769V9.20957C18.2664 8.85199 18.1689 8.50108 17.9838 8.19519C17.7986 7.88931 17.5328 7.64023 17.2156 7.47519C16.9327 7.39252 16.6417 7.2984 16.3455 7.20257C15.3616 6.88429 14.3192 6.54707 13.3156 6.54707C13.3195 6.50653 13.3195 6.46573 13.3156 6.42519ZM12.6817 9.678C13.5009 9.17912 14.3972 8.63328 15.4534 8.94847C17.3096 9.51097 17.244 13.9172 16.2221 14.836C15.3596 15.6141 13.1378 16.0078 11.0659 15.9516C8.99401 15.8953 6.76276 15.6141 5.90964 14.836C4.88776 13.9172 4.81276 9.65159 6.60339 8.94847C7.78019 8.48574 8.70288 9.10212 9.53267 9.65644C10.0646 10.0118 10.5584 10.3417 11.0565 10.3453C11.5795 10.3492 12.1119 10.0249 12.6817 9.678Z" fill="#6B31C7"/>
</svg>
