<svg width="20" height="20" viewBox="0 0 20 20" fill="none" xmlns="http://www.w3.org/2000/svg">
<circle cx="10" cy="10" r="9.58887" fill="#E3F0F1"/>
<path d="M9.68849 5.07372C9.66938 5.35482 9.51371 5.48786 9.34117 5.58445C9.18043 5.67468 9.03038 5.60296 8.90449 5.47397C8.67333 5.2355 8.44162 4.99746 8.20991 4.75942C7.97807 4.52126 7.74591 4.28275 7.51463 4.04415C7.32748 3.85097 7.32973 3.64332 7.51632 3.45013C7.52492 3.44127 7.53343 3.43237 7.54192 3.42347C7.56171 3.40273 7.58147 3.38204 7.60231 3.36221C7.75573 3.21298 7.9693 3.21125 8.11992 3.3651C8.60381 3.85964 9.0877 4.35476 9.56541 4.85508C9.61144 4.90328 9.64035 4.96849 9.6634 5.02048C9.67244 5.04086 9.68058 5.05922 9.68849 5.07372Z" fill="#15828C"/>
<path d="M4.0358 5.84906C4.02291 5.88016 4.0112 5.90843 4 5.93196C4.0118 6.17547 4.10229 6.29 4.26527 6.35883C4.73324 6.55585 5.20015 6.75535 5.66709 6.95486C5.87868 7.04526 6.09029 7.13567 6.302 7.22586L6.5794 7.34413C6.9877 7.51825 7.39607 7.69239 7.80481 7.865C8.07964 7.98126 8.25049 7.90722 8.36458 7.62959C8.36515 7.62819 8.36573 7.6268 8.36631 7.6254C8.37036 7.61566 8.37451 7.60604 8.37864 7.59644C8.38665 7.57787 8.3946 7.55942 8.40167 7.54051C8.4826 7.3184 8.40279 7.12579 8.18923 7.03209C8.10347 6.99453 8.01726 6.95811 7.93103 6.92168C7.88051 6.90034 7.82998 6.87899 7.77952 6.85741C7.39111 6.69183 7.00276 6.52617 6.61444 6.36051L6.61326 6.36001C5.9508 6.07741 5.28814 5.79473 4.62552 5.51262C4.42994 5.42933 4.27314 5.44032 4.17254 5.58145C4.11116 5.66721 4.06948 5.76779 4.0358 5.84906Z" fill="#15828C"/>
<path d="M13.2233 10.7604C13.4406 10.1941 13.6462 9.65895 13.8517 9.12381C13.8915 9.0202 13.931 8.9164 13.9704 8.81258C14.0469 8.61151 14.1234 8.41038 14.2024 8.2105C14.3535 7.82702 14.7278 7.61012 15.1106 7.6801C15.5158 7.75414 15.8047 8.08557 15.8069 8.50896C15.8125 9.71899 15.8108 10.929 15.808 12.1396C15.8075 12.4479 15.5748 12.6787 15.2859 12.6729C15.0038 12.6677 14.7857 12.4375 14.7852 12.1327C14.7836 11.4893 14.784 10.8459 14.7843 10.2025L14.7843 10.196C14.7845 9.92245 14.7846 9.64893 14.7846 9.37542V9.21404L14.7537 9.20652L14.7399 9.23852C14.724 9.27533 14.7081 9.3123 14.6941 9.34997C14.586 9.63313 14.478 9.91634 14.3699 10.1996L14.3697 10.2003C14.0899 10.9338 13.8101 11.6675 13.528 12.4005C13.4976 12.4791 13.4526 12.563 13.3903 12.6145C13.2329 12.7441 13.0205 12.6631 12.9373 12.4491C12.804 12.1051 12.6728 11.7604 12.5415 11.4156L12.4226 11.1037C12.1892 10.4923 11.9557 9.88096 11.7222 9.27014C11.7132 9.24643 11.7014 9.22329 11.6666 9.20305V12.1171C11.6666 12.3455 11.5744 12.5231 11.3738 12.6232C11.1945 12.7122 11.0135 12.6908 10.8522 12.5676C10.71 12.4589 10.6448 12.3103 10.6454 12.1246C10.6468 11.3604 10.6467 10.5961 10.6465 9.83174C10.6464 9.39506 10.6463 8.95827 10.6465 8.52169C10.6465 8.10697 10.918 7.76976 11.317 7.68589C11.7031 7.60433 12.0948 7.81314 12.246 8.20067C12.4379 8.69259 12.625 9.18641 12.8121 9.68008C12.8984 9.90781 12.9849 10.1359 13.0716 10.3633C13.0976 10.4319 13.1238 10.5002 13.1517 10.573C13.1742 10.6318 13.1978 10.6934 13.2233 10.7604Z" fill="#15828C"/>
<path d="M7.96873 12.0781C8.21827 12.0799 8.36439 12.2378 8.42677 12.5305C8.46667 12.7161 8.37563 12.8821 8.17892 12.9666C7.22235 13.3758 6.26485 13.7836 5.30768 14.1913L4.99738 14.3235C4.96425 14.3377 4.93115 14.352 4.89804 14.3662C4.79474 14.4108 4.69121 14.4554 4.58655 14.497C4.36849 14.5838 4.1819 14.5034 4.09086 14.283C4.0577 14.2032 4.02342 14.1199 4.01105 14.0355C3.98464 13.8562 4.07962 13.7168 4.27295 13.6341C4.89377 13.3691 5.51459 13.1048 6.13567 12.8405L6.78491 12.564C7.12848 12.4175 7.47176 12.2711 7.81643 12.1261C7.86168 12.1073 7.90907 12.0945 7.94118 12.0859C7.95251 12.0828 7.96199 12.0803 7.96873 12.0781Z" fill="#15828C"/>
<path d="M5.63186 10.4568C5.85032 10.4576 6.06903 10.4573 6.28765 10.4571C6.39684 10.4569 6.50627 10.4568 6.61538 10.4568L6.61595 10.4574C6.72364 10.4574 6.8314 10.4576 6.93918 10.4578C7.15481 10.4581 7.37052 10.4585 7.58598 10.4574C7.88272 10.4556 8.00411 10.3145 8.00411 9.97961C8.00411 9.67769 7.86867 9.53366 7.57979 9.53366C6.93292 9.53251 6.28604 9.53251 5.63917 9.53366C5.34524 9.53366 5.21317 9.67769 5.21317 9.99234C5.21317 10.3145 5.33849 10.4551 5.63186 10.4568Z" fill="#15828C"/>
<path d="M7.39448 16.1547C7.38207 16.1838 7.36966 16.2129 7.35554 16.2403C7.36786 16.4151 7.47018 16.5128 7.56917 16.6073C7.57269 16.6106 7.57622 16.614 7.57973 16.6173C7.58558 16.6229 7.59142 16.6285 7.59721 16.6342C7.75401 16.7857 7.96476 16.7909 8.11707 16.6359C8.60602 16.1396 9.09159 15.6405 9.57436 15.1378C9.7261 14.9799 9.71767 14.7671 9.5693 14.6039C9.53221 14.5635 9.49456 14.5241 9.45465 14.4865C9.2956 14.3367 9.09103 14.3367 8.93704 14.4941C8.45259 14.9886 7.9687 15.4837 7.49099 15.9846C7.44767 16.03 7.42109 16.0923 7.39448 16.1547Z" fill="#15828C"/>
</svg>
