<svg width="20" height="20" viewBox="0 0 20 20" fill="none" xmlns="http://www.w3.org/2000/svg">
<path d="M14.1954 6.89233C14.1954 10.0301 11.6518 12.5737 8.51404 12.5737C5.37629 12.5737 2.83264 10.0301 2.83264 6.89233C2.83264 3.75459 5.37629 1.21094 8.51404 1.21094C11.6518 1.21094 14.1954 3.75459 14.1954 6.89233Z" fill="#F8C5EE"/>
<path d="M7.73063 8.763C6.70322 8.36904 6.18971 7.2168 6.58367 6.18939C6.97763 5.16198 8.12988 4.64847 9.15728 5.04243C9.96226 5.3511 10.4799 6.2834 10.3285 7.00588" stroke="#D13EB3" stroke-width="0.833333" stroke-linecap="round"/>
<path d="M12.1544 7.85566C12.2589 7.42039 12.2828 6.98462 12.2356 6.56406C12.0648 5.04206 10.9635 3.71936 9.38827 3.34105C7.37776 2.85821 5.35651 4.09664 4.87367 6.10714C4.39083 8.11765 5.62925 10.1389 7.63976 10.6217" stroke="#D13EB3" stroke-width="0.833333" stroke-linecap="round"/>
<path d="M9.02954 8.69141C8.98161 8.12248 9.61975 7.7561 10.0872 8.08398L17.0403 12.9619C17.4955 13.2815 17.3885 13.9838 16.8586 14.1533L14.9426 14.7656L16.3928 17.2139C16.5792 17.5283 16.4811 17.9342 16.1711 18.1279L14.7151 19.0371C14.3946 19.2374 13.9722 19.1347 13.7795 18.8096L12.3333 16.3701L10.8899 17.7393C10.4803 18.127 9.80449 17.8687 9.75708 17.3066L9.02954 8.69141Z" fill="#9E0E78" stroke="white" stroke-width="0.884055"/>
</svg>
